<svg width="18" height="18" viewBox="0 0 18 18" fill="none" xmlns="http://www.w3.org/2000/svg">
<g class="icoAddLocation">
<path d="M9.39784 16.2709C9.25332 16.411 9.11986 16.5379 9 16.6502C8.88014 16.5379 8.74668 16.411 8.60216 16.2709C7.9629 15.6515 7.11317 14.7802 6.26634 13.7701C5.41681 12.7567 4.58758 11.6241 3.97498 10.482C3.35621 9.32843 3 8.2416 3 7.3C3 3.2069 5.99603 1 9 1C12.004 1 15 3.2069 15 7.3C15 8.2416 14.6438 9.32843 14.025 10.482C13.4124 11.6241 12.5832 12.7567 11.7337 13.7701C10.8868 14.7802 10.0371 15.6515 9.39784 16.2709Z" stroke="black" stroke-width="2" class="strokeBasic"></path>
<path d="M6.5 7H11.5M9 4.5V9.5" stroke="black" stroke-width="2" stroke-linecap="round" class="strokePoint"></path>
</g>
</svg>