<svg width="18" height="18" viewBox="0 0 18 18" fill="none" xmlns="http://www.w3.org/2000/svg">
<g class="icoCalendar">
<path d="M2 6H16M4 1V3M14 1V3M2.75 17H15.25C15.6642 17 16 16.6642 16 16.25V3.75C16 3.33579 15.6642 3 15.25 3H2.75C2.33579 3 2 3.33579 2 3.75L2 16.25C2 16.6642 2.33579 17 2.75 17Z" stroke="black" stroke-width="2" stroke-linecap="round" class="strokeBasic"></path>
<path d="M5.5 9.5H6.5V10.5H5.5V9.5ZM8.5 9.5H9.5V10.5H8.5V9.5ZM11.5 9.5H12.5V10.5H11.5V9.5ZM5.5 12.5H6.5V13.5H5.5V12.5ZM8.5 12.5H9.5V13.5H8.5V12.5ZM11.5 12.5H12.5V13.5H11.5V12.5Z" stroke="black" class="fillPoint"></path>
</g>
</svg>