<svg width="18" height="18" viewBox="0 0 18 18" fill="none" xmlns="http://www.w3.org/2000/svg">
<g class="icoCamera">
<path d="M9 7C7.344 7 6 8.344 6 10C6 11.656 7.344 13 9 13C10.656 13 12 11.656 12 10C12 8.344 10.656 7 9 7Z" stroke="black" stroke-width="2" class="fillPoint"></path>
<path d="M1.00006 16L1.00001 5.00001C1 4.44772 1.44772 4 2.00001 4H5.5L7.5 2H10.5L12.5 4H16C16.5523 4 17 4.44772 17 5V16C17 16.5523 16.5523 17 16 17H2.00006C1.44778 17 1.00006 16.5523 1.00006 16Z" stroke="black" stroke-width="2" stroke-linecap="round" class="strokeBasic"></path>
</g>
</svg>