<svg width="18" height="18" viewBox="0 0 18 18" fill="none" xmlns="http://www.w3.org/2000/svg">
<g class="icoCameraAdd">
<path d="M1 10V16C1 16.5523 1.44772 17 2 17H16C16.5523 17 17 16.5523 17 16V5C17 4.44772 16.5523 4 16 4H12.5L10.5 2H7.5" stroke="black" stroke-width="2" stroke-linecap="round" class="strokeBasic"></path>
<path d="M1 4H3M3 4H5M3 4V2M3 4V6M9 7C7.344 7 6 8.344 6 10C6 11.656 7.344 13 9 13C10.656 13 12 11.656 12 10C12 8.344 10.656 7 9 7Z" stroke="black" stroke-width="2" stroke-linecap="round" class="strokePoint"></path>
</g>
</svg>