<svg width="18" height="18" viewBox="0 0 18 18" fill="none" xmlns="http://www.w3.org/2000/svg">
<g class="icoList">
<path d="M5.5 4H16M5.5 9H16M5.5 14H16" stroke="black" stroke-width="2" stroke-linecap="round" class="strokeBasic"></path>
<g class="fillPoint">
<path d="M3.00005 4C3.00005 4.55228 2.55233 5 2.00005 5C1.44777 5 1.00005 4.55228 1.00005 4C1.00005 3.44772 1.44777 3 2.00005 3C2.55233 3 3.00005 3.44772 3.00005 4Z" fill="black"></path>
<path d="M3 9C3 9.55228 2.55228 10 2 10C1.44772 10 1 9.55228 1 9C1 8.44772 1.44772 8 2 8C2.55228 8 3 8.44772 3 9Z" fill="black"></path>
<path d="M3 14C3 14.5523 2.55228 15 2 15C1.44772 15 1 14.5523 1 14C1 13.4477 1.44772 13 2 13C2.55228 13 3 13.4477 3 14Z" fill="black"></path>
</g>
</g>
</svg>