<svg width="18" height="18" viewBox="0 0 18 18" fill="none" xmlns="http://www.w3.org/2000/svg">
<g class="icoLockClose">
<path d="M5 4C5 4.55228 5.44772 5 6 5C6.55228 5 7 4.55228 7 4H5ZM11 4V7H13V4H11ZM13 4C13 1.79086 11.2091 0 9 0V2C10.1046 2 11 2.89543 11 4H13ZM7 4C7 2.89543 7.89543 2 9 2V0C6.79086 0 5 1.79086 5 4H7Z" fill="black" class="strockPoint"></path>
<path d="M3 16V8C3 7.44772 3.44772 7 4 7H14C14.5523 7 15 7.44772 15 8V16C15 16.5523 14.5523 17 14 17H4C3.44772 17 3 16.5523 3 16Z" stroke="black" stroke-width="2" class="strokeBasic"></path>
<circle cx="9" cy="12" r="1" stroke="black" stroke-width="2" class="fillPoint"></circle>
</g>
</svg>