<svg width="18" height="18" viewBox="0 0 18 18" fill="none" xmlns="http://www.w3.org/2000/svg">
<g class="icoMagic">
<path d="M1.05317 14.6444L7.71234 7.98312L10.0159 10.2874L3.35676 16.9487L1.05317 14.6444ZM11.4299 8.873L9.12634 6.56868L10.6476 5.04693L12.9512 7.35125L11.4299 8.873Z" stroke="black" stroke-width="2" class="strokeBasic"></path>
<g class="fillPoint">
<path d="M15.6 5.8L16.352 4.152L18 3.4L16.352 2.648L15.6 1L14.848 2.648L13.2 3.4L14.848 4.152L15.6 5.8Z" fill="black"></path>
<path d="M6.4 5.8L7.152 4.152L8.8 3.4L7.152 2.648L6.4 1L5.648 2.648L4 3.4L5.648 4.152L6.4 5.8Z" fill="black"></path>
<path d="M15.6 10.2L14.848 11.848L13.2 12.6L14.848 13.352L15.6 15L16.352 13.352L18 12.6L16.352 11.848L15.6 10.2Z" fill="black"></path>
</g>
</g>
</svg>