<svg width="18" height="18" viewBox="0 0 18 18" fill="none" xmlns="http://www.w3.org/2000/svg">
<g class="icoMapLine">
<path d="M2 5.66625C2 6.70707 2 10.7495 2 12.5C2 14.2505 3.3125 16 5.5 16C7.6875 16 9 14.2505 9 12.5C9 10.7495 9 7.24957 9 5.5C9 3.75043 10.3125 2 12.5 2C14.6875 2 16 3.75043 16 5.50046C16 7.25049 16 12.3425 16 12.3425" stroke="black" stroke-width="2" class="strokeBasic"></path>
<g class="strokePoint">
<path d="M3.75 5.50011L2.875 5.49968H2V3.91588C2 2.87503 2.7 2.00043 3.75 2C4.8 1.99957 5.5 2.87503 5.5 3.93338C5.5 4.62508 4.77375 5.50011 3.75 5.50011Z" stroke="black" stroke-width="2"></path>
<path d="M14.3988 12.4999H15.125H16V14.0924C16 15.1254 15.125 16 14.25 16C13.375 16 12.5 15.3707 12.5 14.2504C12.5 13.13 13.375 12.4999 14.3988 12.4999Z" stroke="black" stroke-width="2"></path>
</g>
</g>
</svg>