<svg width="18" height="18" viewBox="0 0 18 18" fill="none" xmlns="http://www.w3.org/2000/svg">
<g clip-path="url(#clip0_1108_2001)" class="icoSet">
<path d="M14.8848 9.75454L14.8111 10.3279L15.2712 10.6779L16.8258 11.8604L15.4613 14.1565L13.585 13.4235L13.0746 13.2241L12.6318 13.5471C12.2026 13.8603 11.7576 14.1206 11.2872 14.3081L10.7522 14.5214L10.6682 15.0912L10.3868 17H7.61729L7.33589 15.0912L7.2519 14.5214L6.7169 14.3081C6.23951 14.1178 5.7977 13.8654 5.38202 13.5543L4.93688 13.2213L4.41905 13.4235L2.54278 14.1565L1.17831 11.8604L2.73287 10.6779L3.19298 10.3279L3.1193 9.75454C3.08499 9.48755 3.06269 9.23729 3.06269 9C3.06269 8.76271 3.08499 8.51245 3.1193 8.24546L3.19298 7.67208L2.73287 7.32209L1.17831 6.13961L2.54278 3.84349L4.41905 4.57645L4.92953 4.77587L5.37228 4.45287C5.8015 4.13974 6.24653 3.87942 6.7169 3.69191L7.2519 3.47863L7.33589 2.90884L7.61729 1H10.3868L10.6682 2.90884L10.7522 3.47863L11.2872 3.69191C11.7646 3.88222 12.2064 4.13464 12.6221 4.44568L13.0672 4.77874L13.585 4.57645L15.4613 3.84349L16.8258 6.13961L15.2712 7.32209L14.8111 7.67208L14.8848 8.24546C14.9192 8.51342 14.9414 8.75432 14.9414 9C14.9414 9.24568 14.9192 9.48658 14.8848 9.75454Z" stroke="black" stroke-width="2" class="strokeBasic"></path>
<circle cx="9" cy="9" r="2" stroke="black" stroke-width="2" class="strokePoint"></circle>
</g>
<defs>
<clipPath id="clip0_1108_2001">
<rect width="18" height="18" fill="white"></rect>
</clipPath>
</defs>
</svg>