<svg width="18" height="18" viewBox="0 0 18 18" fill="none" xmlns="http://www.w3.org/2000/svg">
<g class="icoTriangle">
<path d="M7.69066 2.74455L1.20522 13.6799C1.07151 13.9138 1.00075 14.179 1.00001 14.449C0.999257 14.7191 1.06854 14.9847 1.20095 15.2193C1.33337 15.4539 1.52431 15.6495 1.75477 15.7864C1.98523 15.9234 2.24718 15.997 2.51456 16H15.4854C15.7528 15.997 16.0148 15.9234 16.2452 15.7864C16.4757 15.6495 16.6666 15.4539 16.799 15.2193C16.9315 14.9847 17.0007 14.7191 17 14.449C16.9992 14.179 16.9285 13.9138 16.7948 13.6799L10.3093 2.74455C10.1728 2.51726 9.98064 2.32935 9.7513 2.19893C9.52195 2.06851 9.2632 2 9 2C8.7368 2 8.47805 2.06851 8.2487 2.19893C8.01936 2.32935 7.82716 2.51726 7.69066 2.74455V2.74455Z" stroke="black" stroke-width="2" stroke-linecap="round" stroke-linejoin="round" class="strokeBasic"></path>
<path d="M9 7V10" stroke="black" stroke-width="2" stroke-linecap="round" stroke-linejoin="round" class="strokePoint"></path>
<circle cx="9" cy="13" r="0.5" stroke="black" class="fillPoint"></circle>
</g>
</svg>