<svg width="18" height="19" viewBox="0 0 18 19" fill="none" xmlns="http://www.w3.org/2000/svg">
<g clip-path="url(#clip0_158_25467)">
<path d="M8.24909 15.3032L8.24837 15.3025C6.30706 13.5421 4.7363 12.1167 3.64484 10.7823C2.55912 9.45488 2 8.27865 2 7.02539C2 4.99153 3.59114 3.40039 5.625 3.40039C6.77861 3.40039 7.89362 3.93986 8.61932 4.79206L9 5.23909L9.38068 4.79206C10.1064 3.93986 11.2214 3.40039 12.375 3.40039C14.4089 3.40039 16 4.99153 16 7.02539C16 8.27866 15.4409 9.45491 14.3551 10.7833C13.264 12.1182 11.6941 13.5448 9.75388 15.308L9.75231 15.3094L9.75124 15.3104L9.00128 15.9879L8.24909 15.3032Z" stroke="#222222"/>
</g>
<defs>
<clipPath id="clip0_158_25467">
<rect width="18" height="18" fill="white" transform="translate(0 0.5)"/>
</clipPath>
</defs>
</svg>
