<svg width="22" height="43" viewBox="0 0 22 43" fill="none" xmlns="http://www.w3.org/2000/svg">
<path d="M11.328 10.3025C8.483 10.3025 6.1767 7.99623 6.1767 5.15127C6.1767 2.3063 8.483 0 11.328 0C14.1729 0 16.4792 2.3063 16.4792 5.15127C16.4792 7.99623 14.1729 10.3025 11.328 10.3025Z" fill="#5BA7FF"/>
<path d="M19.559 16.04C18.8827 14.0675 17.0279 12.7426 14.9427 12.7426H7.64088C5.50931 12.7426 3.62436 14.1261 2.98525 16.1596L1.70332 27.1397C0.989672 29.4104 2.68552 31.721 5.06572 31.721H5.68587V38.9056C5.68587 40.8522 7.26386 42.4302 9.21042 42.4302H13.0061C14.9526 42.4302 16.5306 40.8522 16.5306 38.9056V31.721H17.2898C19.7082 31.721 21.4082 29.341 20.6238 27.0533L19.559 16.04Z" fill="#5BA7FF"/>
</svg>
