<svg width="38" height="38" viewBox="0 0 38 38" fill="none" xmlns="http://www.w3.org/2000/svg">
<circle cx="16.2914" cy="16.0728" r="1.21854" fill="#111111"/>
<path d="M22.8411 23.6198C24.4441 21.9618 25.4305 19.7037 25.4305 17.2152C25.4305 12.1258 21.3047 8 16.2152 8C11.1258 8 7 12.1258 7 17.2152C7 22.3047 11.1258 26.4305 16.2152 26.4305C18.8162 26.4305 21.1655 25.3529 22.8411 23.6198ZM22.8411 23.6198L30 30.9238M19.4901 15.7682C19.4901 18.2964 16.2914 21.7086 16.2914 21.7086C16.2914 21.7086 13.0927 18.2964 13.0927 15.7682C13.0927 14.0016 14.5248 12.5695 16.2914 12.5695C18.058 12.5695 19.4901 14.0016 19.4901 15.7682Z" stroke="#111111" stroke-width="1.5" stroke-linecap="round"/>
</svg>
