<svg width="40" height="40" viewBox="0 0 40 40" fill="none" xmlns="http://www.w3.org/2000/svg">
<path d="M12 17H28M15 11V13M25 11V13M13 29H27C27.5523 29 28 28.5523 28 28V14C28 13.4477 27.5523 13 27 13H13C12.4477 13 12 13.4477 12 14V28C12 28.5523 12.4477 29 13 29Z" stroke="black" stroke-width="1.5" stroke-linecap="round"/>
<path d="M15.5 20.5H16.5V21.5H15.5V20.5ZM19.5 20.5H20.5V21.5H19.5V20.5ZM23.5 21.5V20.5H24.5V21.5H23.5ZM23.5 25.5V24.5H24.5V25.5H23.5ZM19.5 25.5V24.5H20.5V25.5H19.5ZM15.5 25.5V24.5H16.5V25.5H15.5Z" stroke="black"/>
</svg>
