<svg width="24" height="24" viewBox="0 0 24 24" fill="none" xmlns="http://www.w3.org/2000/svg">
<path fill-rule="evenodd" clip-rule="evenodd" d="M21.4017 8.69951L21.4015 8.69841L20.3517 4.32936C20.1582 3.53894 19.4764 3 18.6845 3H4.79454C4.01251 3 3.3217 3.5483 3.13786 4.32741L3.13763 4.32841L2.0879 8.69726C1.86506 9.64505 2.06941 10.6074 2.66162 11.3662L2.66684 11.3729C2.69264 11.4083 2.72596 11.4429 2.77286 11.4874C2.7806 11.4947 2.78899 11.5026 2.79787 11.5109C2.83742 11.548 2.88653 11.594 2.93037 11.6428L2.99454 11.7141V18.75C2.99454 19.7119 3.78262 20.5 4.74454 20.5H18.7445C19.7065 20.5 20.4945 19.7119 20.4945 18.75V11.7064L20.5678 11.6332C20.6004 11.6006 20.6384 11.5652 20.6725 11.5334C20.6882 11.5187 20.7031 11.5049 20.7162 11.4924C20.7625 11.4485 20.7996 11.4108 20.8285 11.3749C21.4209 10.6151 21.6333 9.64417 21.4017 8.69951ZM18.8513 4.48898L19.9476 9.05159C20.0647 9.54342 19.9597 10.0424 19.6514 10.4341C19.4875 10.6446 19.1229 11 18.5145 11C17.768 11 17.1395 10.405 17.0561 9.63826L17.0563 9.63963L17.056 9.63677L17.0561 9.63826L16.4431 4.50146L18.8513 4.48898ZM12.4945 4.5H14.9265L15.4925 9.23821L15.4927 9.2393C15.5513 9.69882 15.4103 10.1599 15.1031 10.5042C14.8312 10.8238 14.4396 11 13.9645 11C13.1401 11 12.4945 10.2811 12.4945 9.44V4.5ZM7.98637 9.2398L8.56312 4.5H10.9945V9.44C10.9945 10.2904 10.3401 11 9.45454 11C9.0363 11 8.6621 10.8143 8.38084 10.5096L8.37508 10.5033C8.07886 10.1597 7.93904 9.70084 7.98585 9.24449L7.98637 9.2398ZM3.54134 9.0521L4.59584 4.5H7.04615L6.43278 9.63963C6.3391 10.4008 5.72456 11 4.97454 11C4.38454 11 4.00952 10.6545 3.84752 10.4341C3.52692 10.0494 3.42558 9.5393 3.54134 9.0521ZM4.49454 19V12.4368L4.77555 12.4719C4.81042 12.4763 4.84808 12.4829 4.87616 12.4879C4.88555 12.4896 4.89386 12.491 4.90064 12.4922C4.93345 12.4976 4.95508 12.5 4.97454 12.5C5.77354 12.5 6.50041 12.1698 7.03626 11.6247L7.21303 11.4449L7.39132 11.6232C7.94526 12.1772 8.68201 12.5 9.52454 12.5C10.3232 12.5 11.0417 12.17 11.5793 11.6417L11.7531 11.4709L11.9282 11.6402C12.4746 12.1681 13.2134 12.5 14.0445 12.5C14.8142 12.5 15.5517 12.1793 16.1078 11.6232L16.2861 11.4449L16.4628 11.6247C16.9987 12.1698 17.7256 12.5 18.5245 12.5C18.544 12.5 18.5656 12.4976 18.5984 12.4922C18.6052 12.491 18.6135 12.4896 18.6229 12.4879C18.651 12.4829 18.6887 12.4763 18.7235 12.4719L19.0045 12.4368V19H4.49454Z" fill="#0B1D59"/>
</svg>
