<svg width="22" height="43" viewBox="0 0 22 43" fill="none" xmlns="http://www.w3.org/2000/svg">
<path d="M10.6975 10.3025C7.8525 10.3025 5.5462 7.99623 5.5462 5.15127C5.5462 2.3063 7.8525 0 10.6975 0C13.5424 0 15.8487 2.3063 15.8487 5.15127C15.8487 7.99623 13.5424 10.3025 10.6975 10.3025Z" fill="#FF7C7C"/>
<path d="M17.0307 16.04C16.3544 14.0675 14.4995 12.7426 12.4143 12.7426H8.6371C6.50553 12.7426 4.62057 14.1261 3.98147 16.1596L0.530586 27.1397C-0.183064 29.4104 1.51278 31.721 3.89298 31.721H5.05537V38.9056C5.05537 40.8522 6.63337 42.4302 8.57992 42.4302H12.3756C14.3221 42.4302 15.9001 40.8522 15.9001 38.9056V31.721H17.4726C19.891 31.721 21.591 29.341 20.8067 27.0533L17.0307 16.04Z" fill="#FF7C7C"/>
</svg>
