<svg width="38" height="38" viewBox="0 0 38 38" fill="none" xmlns="http://www.w3.org/2000/svg">
<path d="M32 22.3386C32 17.9899 28.4747 14.4645 24.126 14.4645C19.7773 14.4645 16.252 17.9899 16.252 22.3386C16.252 26.6873 19.7773 30.2126 24.126 30.2126C28.4747 30.2126 32 26.6873 32 22.3386Z" stroke="#111111" stroke-width="1.5"/>
<path d="M25.307 13.874C25.307 9.52532 21.7817 6 17.433 6C13.0843 6 9.55898 9.52532 9.55898 13.874C9.55898 18.2227 13.0843 21.748 17.433 21.748C21.7817 21.748 25.307 18.2227 25.307 13.874Z" stroke="#111111" stroke-width="1.5"/>
<path d="M14.4802 27.063C14.4802 24.8886 12.7176 23.126 10.5432 23.126C8.36887 23.126 6.60621 24.8886 6.60621 27.063C6.60621 29.2373 8.36887 31 10.5432 31C12.7176 31 14.4802 29.2373 14.4802 27.063Z" stroke="#111111" stroke-width="1.5"/>
<path d="M17.5 18.5L19.5 21" stroke="#111111" stroke-width="1.5" stroke-linecap="round" stroke-linejoin="round"/>
<path d="M22 19.5L19.2889 16.337" stroke="#111111" stroke-width="1.5" stroke-linecap="round" stroke-linejoin="round"/>
<path d="M22 15L24 17.5" stroke="#111111" stroke-width="1.5" stroke-linecap="round" stroke-linejoin="round"/>
</svg>
