<svg width="38" height="38" viewBox="0 0 38 38" fill="none" xmlns="http://www.w3.org/2000/svg">
<path d="M19.8809 31.75C20.2951 31.75 20.6309 31.4142 20.6309 31C20.6309 30.5858 20.2951 30.25 19.8809 30.25V31.75ZM8.35917 20.0769C8.35917 19.6627 8.02338 19.3269 7.60917 19.3269C7.19495 19.3269 6.85917 19.6627 6.85917 20.0769H8.35917ZM17.3955 25.5192C17.8097 25.5192 18.1455 25.1834 18.1455 24.7692C18.1455 24.355 17.8097 24.0192 17.3955 24.0192V25.5192ZM8.15693 8.4344L8.77985 8.85209L8.77985 8.85209L8.15693 8.4344ZM5.35677 12.9231L4.72768 12.5147L4.72768 12.5147L5.35677 12.9231ZM11.4813 15.9642L12.0421 15.4662L12.0421 15.4662L11.4813 15.9642ZM17.1581 15.9702L17.7076 16.4807L17.7076 16.4807L17.1581 15.9702ZM6.28881 16.6734L6.60102 15.9915L6.60102 15.9915L6.28881 16.6734ZM10.9989 15.9283L10.5088 15.3606L10.5088 15.3606L10.9989 15.9283ZM17.6539 15.9508L18.1646 15.4016L18.1646 15.4016L17.6539 15.9508ZM23.5484 15.9658L22.981 15.4753L22.981 15.4753L23.5484 15.9658ZM24.0365 15.9082L23.5929 16.513L23.5929 16.513L24.0365 15.9082ZM28.3468 16.6734L28.6298 17.368L28.6298 17.368L28.3468 16.6734ZM26.6494 8.4789L26.0269 8.89722L26.0269 8.89722L26.6494 8.4789ZM29.7287 13.025L29.1179 13.4602L29.1179 13.4602L29.7287 13.025ZM29.8694 13.3055L30.5924 13.1059L30.5924 13.1059L29.8694 13.3055ZM10.0946 31.75H19.8809V30.25H10.0946V31.75ZM6.85917 20.0769V24.7692H8.35917V20.0769H6.85917ZM6.85917 24.7692V28.5385H8.35917V24.7692H6.85917ZM7.60917 25.5192H17.3955V24.0192H7.60917V25.5192ZM10.0946 30.25C9.1293 30.25 8.35917 29.4769 8.35917 28.5385H6.85917C6.85917 30.319 8.31455 31.75 10.0946 31.75V30.25ZM7.534 8.01671C7.12912 8.62055 6.53979 9.5731 5.99974 10.4535C5.45191 11.3465 4.95853 12.1591 4.72768 12.5147L5.98587 13.3314C6.23058 12.9544 6.74242 12.1115 7.27835 11.2378C7.82206 10.3515 8.39502 9.42602 8.77985 8.85209L7.534 8.01671ZM10.9204 16.4622C12.745 18.5169 15.8299 18.5021 17.7076 16.4807L16.6086 15.4598C15.3126 16.855 13.2586 16.8363 12.0421 15.4662L10.9204 16.4622ZM4.72768 12.5147C4.33207 13.1242 4.16495 14.0779 4.29204 14.9563C4.42288 15.8606 4.89572 16.8605 5.9766 17.3554L6.60102 15.9915C6.12852 15.7752 5.86073 15.323 5.77659 14.7415C5.6887 14.134 5.83225 13.5681 5.98587 13.3314L4.72768 12.5147ZM5.9766 17.3554C6.80062 17.7326 7.69608 17.9538 8.65088 17.8452C9.61039 17.736 10.5552 17.3022 11.489 16.496L10.5088 15.3606C9.75771 16.0091 9.08624 16.286 8.4813 16.3548C7.87164 16.4242 7.25448 16.2907 6.60102 15.9915L5.9766 17.3554ZM17.1432 16.5001C19.0936 18.3135 22.242 18.6242 24.1158 16.4562L22.981 15.4753C21.8026 16.8387 19.6613 16.7931 18.1646 15.4016L17.1432 16.5001ZM23.5929 16.513C24.2798 17.0168 26.3372 18.3022 28.6298 17.368L28.0638 15.9789C26.5569 16.5929 25.1048 15.7617 24.48 15.3035L23.5929 16.513ZM9.00005 8.75H25.7455V7.25H9.00005V8.75ZM26.0269 8.89722C26.9865 10.3252 28.6245 12.7677 29.1179 13.4602L30.3395 12.5898C29.8619 11.9193 28.2423 9.50461 27.272 8.06058L26.0269 8.89722ZM29.1465 13.5052C29.2106 13.7374 29.3095 14.2333 29.2031 14.7286C29.1073 15.1744 28.8418 15.6618 28.0638 15.9789L28.6298 17.368C29.9055 16.8482 30.4787 15.9323 30.6696 15.0437C30.8499 14.2045 30.6832 13.4349 30.5924 13.1059L29.1465 13.5052ZM29.1179 13.4602C29.1485 13.5032 29.1492 13.515 29.1465 13.5052L30.5924 13.1059C30.5332 12.8916 30.4323 12.72 30.3395 12.5898L29.1179 13.4602ZM17.7076 16.4807C17.5591 16.6406 17.3103 16.6554 17.1432 16.5001L18.1646 15.4016C17.7174 14.9858 17.0173 15.0199 16.6086 15.4598L17.7076 16.4807ZM25.7455 8.75C25.8623 8.75 25.9665 8.80727 26.0269 8.89722L27.272 8.06058C26.9295 7.55102 26.3558 7.25 25.7455 7.25V8.75ZM12.0421 15.4662C11.6568 15.0324 10.9722 14.9606 10.5088 15.3606L11.489 16.496C11.3076 16.6527 11.0587 16.6179 10.9204 16.4622L12.0421 15.4662ZM24.1158 16.4562C23.9874 16.6048 23.7661 16.64 23.5929 16.513L24.48 15.3035C24.0076 14.957 23.3516 15.0465 22.981 15.4753L24.1158 16.4562ZM8.77985 8.85209C8.81529 8.79924 8.88877 8.75 9.00005 8.75V7.25C8.43491 7.25 7.87277 7.51149 7.534 8.01671L8.77985 8.85209Z" fill="#111111"/>
<path d="M29.15 26.7777L28.4 26.7777V26.7777L29.15 26.7777ZM26.1221 24.2267L25.3721 24.2267L25.3721 24.2267L26.1221 24.2267ZM28.3817 24.1167C28.529 24.5039 28.9623 24.6983 29.3494 24.551C29.7366 24.4037 29.931 23.9704 29.7837 23.5833L28.3817 24.1167ZM28.3188 21.8562C28.3188 21.442 27.983 21.1062 27.5688 21.1062C27.1545 21.1062 26.8188 21.442 26.8188 21.8562H28.3188ZM26.7714 26.8988C26.6327 26.5085 26.2038 26.3046 25.8135 26.4433C25.4233 26.5821 25.2194 27.011 25.3581 27.4012L26.7714 26.8988ZM27.5688 28.1119L27.5875 27.3621L27.5875 27.3621L27.5688 28.1119ZM26.8188 29.1438C26.8188 29.558 27.1545 29.8938 27.5688 29.8938C27.983 29.8938 28.3188 29.558 28.3188 29.1438H26.8188ZM29.9 26.7777C29.9 26.4348 29.8334 26.1142 29.6808 25.8297C29.5267 25.5425 29.3089 25.3369 29.0755 25.1904C28.6496 24.9233 28.1185 24.8302 27.779 24.7643C27.3611 24.6831 27.135 24.6292 26.9929 24.5403C26.9424 24.5087 26.9239 24.4842 26.9127 24.4634C26.9 24.4399 26.8721 24.3743 26.8721 24.2267L25.3721 24.2267C25.3721 24.5694 25.4388 24.8898 25.5917 25.174C25.7461 25.461 25.9641 25.6661 26.1975 25.812C26.6231 26.0782 27.154 26.171 27.4931 26.2368C27.9105 26.3179 28.1364 26.3721 28.2783 26.4611C28.3287 26.4927 28.3475 26.5174 28.359 26.5389C28.372 26.563 28.4 26.6293 28.4 26.7777L29.9 26.7777ZM26.8721 24.2267C26.8721 24.0772 26.9245 23.9974 27.0146 23.9311C27.129 23.8469 27.327 23.7781 27.5776 23.7751L27.5599 22.2752C27.0766 22.2809 26.5512 22.4099 26.1258 22.7228C25.676 23.0537 25.3721 23.5704 25.3721 24.2267L26.8721 24.2267ZM27.5776 23.7751C28.0749 23.7692 28.3346 23.9928 28.3817 24.1167L29.7837 23.5833C29.4135 22.6105 28.3516 22.2658 27.5599 22.2752L27.5776 23.7751ZM28.3188 23.0251V21.8562H26.8188V23.0251H28.3188ZM25.3581 27.4012C25.7179 28.4133 26.7128 28.8407 27.55 28.8616L27.5875 27.3621C27.1435 27.351 26.8562 27.1372 26.7714 26.8988L25.3581 27.4012ZM27.55 28.8616C28.0809 28.8749 28.6502 28.735 29.106 28.3931C29.5835 28.0349 29.9 27.4779 29.9 26.7777L28.4 26.7777C28.4 26.9867 28.3213 27.1066 28.206 27.1932C28.0689 27.296 27.8476 27.3686 27.5875 27.3621L27.55 28.8616ZM26.8188 28.1119V29.1438H28.3188V28.1119H26.8188ZM27.5 30.25C24.8766 30.25 22.75 28.1234 22.75 25.5H21.25C21.25 28.9518 24.0482 31.75 27.5 31.75V30.25ZM32.25 25.5C32.25 28.1234 30.1234 30.25 27.5 30.25V31.75C30.9518 31.75 33.75 28.9518 33.75 25.5H32.25ZM27.5 20.75C30.1234 20.75 32.25 22.8766 32.25 25.5H33.75C33.75 22.0482 30.9518 19.25 27.5 19.25V20.75ZM27.5 19.25C24.0482 19.25 21.25 22.0482 21.25 25.5H22.75C22.75 22.8766 24.8766 20.75 27.5 20.75V19.25Z" fill="#111111"/>
</svg>
