<svg width="31" height="31" viewBox="0 0 31 31" fill="none" xmlns="http://www.w3.org/2000/svg">
<path d="M15.3334 13.085C17.5434 13.085 19.3334 11.295 19.3334 9.08496C19.3334 6.87496 17.5434 5.08496 15.3334 5.08496C13.1234 5.08496 11.3334 6.87496 11.3334 9.08496C11.3334 11.295 13.1234 13.085 15.3334 13.085ZM15.3334 7.08496C16.4334 7.08496 17.3334 7.98496 17.3334 9.08496C17.3334 10.185 16.4334 11.085 15.3334 11.085C14.2334 11.085 13.3334 10.185 13.3334 9.08496C13.3334 7.98496 14.2334 7.08496 15.3334 7.08496ZM15.3334 15.635C12.9734 13.435 9.81337 12.085 6.33337 12.085V23.085C9.81337 23.085 12.9734 24.435 15.3334 26.635C17.6934 24.445 20.8534 23.085 24.3334 23.085V12.085C20.8534 12.085 17.6934 13.435 15.3334 15.635ZM22.3334 21.215C19.8034 21.555 17.4034 22.515 15.3334 24.035C13.2734 22.515 10.8634 21.545 8.33337 21.205V14.255C10.4334 14.635 12.3834 15.605 13.9734 17.085L15.3334 18.365L16.6934 17.095C18.2834 15.615 20.2334 14.645 22.3334 14.265V21.215Z" fill="black"/>
</svg>
