<svg width="38" height="38" viewBox="0 0 38 38" fill="none" xmlns="http://www.w3.org/2000/svg">
<path d="M28.1 26.1262L27.35 26.1262L27.35 26.1262L28.1 26.1262ZM24.2463 22.8795L23.4963 22.8795L23.4963 22.8795L24.2463 22.8795ZM27.3134 22.6667C27.4607 23.0539 27.8939 23.2483 28.2811 23.101C28.6682 22.9537 28.8626 22.5204 28.7153 22.1333L27.3134 22.6667ZM26.8375 19.8625C26.8375 19.4483 26.5017 19.1125 26.0875 19.1125C25.6733 19.1125 25.3375 19.4483 25.3375 19.8625H26.8375ZM24.88 26.3488C24.7413 25.9585 24.3124 25.7546 23.9221 25.8933C23.5318 26.0321 23.3279 26.461 23.4667 26.8512L24.88 26.3488ZM26.0875 27.8242L26.1062 27.0744L26.1062 27.0744L26.0875 27.8242ZM25.3375 29.1375C25.3375 29.5517 25.6733 29.8875 26.0875 29.8875C26.5017 29.8875 26.8375 29.5517 26.8375 29.1375H25.3375ZM28.85 26.1262C28.85 25.7162 28.7705 25.3429 28.5953 25.0163C28.4186 24.687 28.1686 24.45 27.8964 24.2793C27.3931 23.9636 26.7588 23.8504 26.3161 23.7645C25.7949 23.6633 25.4657 23.5893 25.2461 23.452C25.1569 23.3962 25.1062 23.3404 25.0723 23.2775C25.0371 23.2121 24.9963 23.0939 24.9963 22.8795L23.4963 22.8795C23.4963 23.289 23.5759 23.662 23.7514 23.9882C23.9283 24.3171 24.1786 24.5536 24.4507 24.7237C24.9538 25.0383 25.5879 25.1511 26.0302 25.237C26.5509 25.3381 26.88 25.4124 27.0993 25.5499C27.1884 25.6059 27.2395 25.662 27.2735 25.7255C27.3091 25.7917 27.35 25.9108 27.35 26.1262L28.85 26.1262ZM24.9963 22.8795C24.9963 22.62 25.0973 22.4589 25.261 22.3385C25.4491 22.2001 25.7457 22.1043 26.0964 22.1001L26.0786 20.6002C25.4953 20.6071 24.8713 20.7631 24.3722 21.1302C23.8488 21.5152 23.4963 22.1132 23.4963 22.8795L24.9963 22.8795ZM26.0964 22.1001C26.7694 22.0922 27.2093 22.3932 27.3134 22.6667L28.7153 22.1333C28.2883 21.011 27.0462 20.5888 26.0786 20.6002L26.0964 22.1001ZM26.8375 21.3502V19.8625H25.3375V21.3502H26.8375ZM23.4667 26.8512C23.8871 28.0338 25.0568 28.5487 26.0688 28.574L26.1062 27.0744C25.4876 27.059 25.0254 26.7577 24.88 26.3488L23.4667 26.8512ZM26.0688 28.574C26.7075 28.5899 27.3847 28.4211 27.9213 28.0185C28.4797 27.5997 28.85 26.9503 28.85 26.1262L27.35 26.1262C27.35 26.4591 27.2175 26.6714 27.0212 26.8186C26.8033 26.982 26.4742 27.0836 26.1062 27.0744L26.0688 28.574ZM25.3375 27.8242V29.1375H26.8375V27.8242H25.3375ZM26 30.75C22.5482 30.75 19.75 27.9518 19.75 24.5H18.25C18.25 28.7802 21.7198 32.25 26 32.25V30.75ZM32.25 24.5C32.25 27.9518 29.4518 30.75 26 30.75V32.25C30.2802 32.25 33.75 28.7802 33.75 24.5H32.25ZM26 18.25C29.4518 18.25 32.25 21.0482 32.25 24.5H33.75C33.75 20.2198 30.2802 16.75 26 16.75V18.25ZM26 16.75C21.7198 16.75 18.25 20.2198 18.25 24.5H19.75C19.75 21.0482 22.5482 18.25 26 18.25V16.75Z" fill="#111111"/>
<path d="M4 15.7857L13.595 8.92857L21.271 14.9286L32 5.5M32 5.5H25.8941M32 5.5V11.4143M6.61682 29.5C5.70151 29.5 4.9595 28.7709 4.9595 27.8714V24.2714C4.9595 23.372 5.70151 22.6429 6.61682 22.6429C7.53214 22.6429 8.27414 23.372 8.27414 24.2714V27.8714C8.27414 28.7709 7.53214 29.5 6.61682 29.5ZM13.595 29.5C12.6797 29.5 11.9377 28.7709 11.9377 27.8714V19.1286C11.9377 18.2291 12.6797 17.5 13.595 17.5C14.5103 17.5 15.2523 18.2291 15.2523 19.1286V27.8714C15.2523 28.7709 14.5103 29.5 13.595 29.5Z" stroke="#111111" stroke-width="1.5" stroke-linecap="round" stroke-linejoin="round"/>
</svg>
