<svg width="21" height="20" viewBox="0 0 21 20" fill="none" xmlns="http://www.w3.org/2000/svg">
<path d="M8 9.16675H6.33333V10.8334H8V9.16675ZM11.3333 9.16675H9.66667V10.8334H11.3333V9.16675ZM14.6667 9.16675H13V10.8334H14.6667V9.16675ZM16.3333 3.33341H15.5V2.50008C15.5 2.03984 15.1269 1.66675 14.6667 1.66675C14.2064 1.66675 13.8333 2.03984 13.8333 2.50008V3.33341H7.16667V2.50008C7.16667 2.03984 6.79357 1.66675 6.33333 1.66675C5.8731 1.66675 5.5 2.03984 5.5 2.50008V3.33341H4.66667C3.74167 3.33341 3.00833 4.08341 3.00833 5.00008L3 16.6667C3 17.5834 3.74167 18.3334 4.66667 18.3334H16.3333C17.25 18.3334 18 17.5834 18 16.6667V5.00008C18 4.08341 17.25 3.33341 16.3333 3.33341ZM16.3333 16.6667H4.66667V7.50008H16.3333V16.6667Z" fill="#2B2B2B"/>
</svg>
