<svg width="338" height="306" viewBox="0 0 338 306" fill="none" xmlns="http://www.w3.org/2000/svg">
<g clip-path="url(#clip0_91_5338)">
<g style="mix-blend-mode:multiply">
<path d="M148.37 114.886L148.37 328.1L337.874 328.1L337.874 49.2342C337.874 42.1298 332.116 36.3704 325.013 36.3704C317.911 36.3704 312.153 42.1297 312.153 49.2342L312.153 88.7849C312.153 94.4343 307.574 99.0139 301.926 99.0139C296.278 99.0139 291.699 94.4343 291.699 88.7849L291.699 25.5932C291.699 12.1546 280.808 1.2604 267.372 1.2604C253.937 1.2604 243.045 12.1546 243.045 25.5932L243.045 180.667C243.045 185.718 238.952 189.812 233.903 189.812C228.854 189.812 224.761 185.718 224.761 180.667L224.761 129.972C224.761 123.296 219.35 117.883 212.675 117.883C206 117.883 200.589 123.296 200.589 129.972L200.589 165.982C200.589 169.876 197.432 173.033 193.538 173.033C189.645 173.033 186.488 169.876 186.488 165.982L186.488 114.886C186.488 104.358 177.955 95.8228 167.429 95.8228C156.903 95.8228 148.37 104.358 148.37 114.886Z" fill="#EEF4FF" fill-opacity="0.8"/>
<path d="M186.018 113.903L186.018 327.467L-0.00564367 327.467L-0.00562592 124.428C-0.00562531 117.454 5.64662 111.8 12.619 111.8C19.5914 111.8 25.2437 117.454 25.2437 124.428L25.2437 148.39C25.2437 153.935 29.7383 158.431 35.2826 158.431C40.8269 158.431 45.3215 153.935 45.3215 148.39L45.3215 100.576C45.3215 87.3847 56.0131 76.6905 69.2019 76.6905C82.3907 76.6905 93.0823 87.3847 93.0823 100.576L93.0823 180.202C93.0823 185.16 97.1002 189.179 102.056 189.179C107.013 189.179 111.031 185.16 111.031 180.202L111.031 129.117C111.031 122.563 116.342 117.25 122.895 117.25C129.447 117.25 134.759 122.563 134.759 129.117L134.759 165.478C134.759 169.301 137.857 172.401 141.68 172.401C145.502 172.401 148.6 169.301 148.6 165.478L148.6 113.903C148.6 103.568 156.977 95.1899 167.309 95.1899C177.642 95.1899 186.018 103.568 186.018 113.903Z" fill="#EEF4FF" fill-opacity="0.8"/>
</g>
<path d="M18.3611 216.822C19.4534 219.564 21.157 222.117 21.9754 223.383L31.3074 218.328C30.2325 215.048 33.0231 210.201 32.0198 207.139C32.8037 203.25 28.3766 200.825 25.7578 200.594C23.1389 200.362 18.5637 205.615 16.9858 208.191C15.408 210.766 16.9958 213.394 18.3611 216.822Z" fill="#FFD3DD"/>
<path d="M30.6103 206.317C30.1049 205.514 28.7514 204.044 27.3804 204.591C25.6667 205.273 21.2853 208.162 20.9875 209.471C20.6898 210.779 22.136 212.606 23.961 211.523C25.421 210.658 26.6142 209.766 27.0284 209.428C26.285 210.116 24.9992 212.031 25.8033 214.189M19.4264 208.771L21.0253 209.216M19.0057 205.64C19.8422 205.729 22.1977 206.216 23.329 207.008M21.4206 203.032C22.7787 203.112 25.5146 203.7 26.0306 205.275M23.5396 201.369C25.0919 201.425 28.5858 202.282 28.9812 204.671" stroke="#AA6474" stroke-width="0.42013" stroke-linecap="round"/>
<path d="M103.332 284.076C102.73 281.815 101.628 279.645 101.103 278.572L93.2826 281.674C93.8206 284.357 91.1686 287.91 91.6708 290.414C90.6883 293.402 93.9453 295.726 95.9849 296.155C98.0246 296.583 102.119 292.878 103.603 290.999C105.087 289.12 104.084 286.902 103.332 284.076Z" fill="#FFD3DD"/>
<path d="M92.7028 291.195C93.0252 291.874 93.9525 293.158 95.0829 292.857C96.4961 292.481 100.216 290.619 100.574 289.617C100.931 288.615 99.964 287.041 98.4259 287.721C97.1953 288.266 96.1723 288.855 95.8146 289.082C96.4643 288.611 97.6563 287.224 97.2261 285.45M101.737 290.314L100.52 289.813M101.774 292.818C101.124 292.669 99.3152 292.064 98.4991 291.335M99.6278 294.644C98.5662 294.454 96.468 293.733 96.2098 292.445M97.8035 295.754C96.587 295.564 93.9173 294.561 93.8305 292.643" stroke="#AA6474" stroke-width="0.42013" stroke-linecap="round"/>
<path d="M128.767 364.528L78.9397 305.929C78.9397 305.929 91.285 297.756 92.1721 296.094C97.6902 303.6 128.901 344.381 130.956 346.585C133.011 348.789 131.051 358.986 128.767 364.528Z" fill="white" stroke="#0057C0" stroke-width="0.840259"/>
<path d="M66.1981 296.591C57.9425 301.106 56.832 304.196 55.4431 307.631C54.0542 311.065 41.2227 354.42 41.2227 354.42H60.114C60.114 354.42 70.9154 313.546 72.1349 312.426C73.3545 311.305 84.3033 306.456 89.2436 303.288C94.1839 300.12 95.6594 295.511 95.0761 290.651C94.7389 287.84 93.9369 285.837 91.771 284.891C88.8366 283.611 71.7231 293.57 66.1981 296.591Z" fill="white" stroke="#0057C0" stroke-width="0.840259"/>
<path d="M75.246 291.623C71.228 294.151 60.9369 301.188 59.6926 302.899C58.1373 305.038 55.9987 311.065 55.0266 313.981C54.0545 316.897 51.9159 324.285 50.9438 327.785C50.1662 330.584 49.6477 333.488 49.1941 334.589C49.6477 334.848 50.7494 335.211 51.5271 334.589C52.4992 333.812 50.3976 334.974 51.5271 331.867C53.0824 327.59 54.8322 322.341 57.9429 312.426C61.0535 302.51 63.2149 302.375 70.9688 296.678C74.7275 294.734 79.7175 291.234 84.9668 287.929C87.0035 286.647 87.559 286.374 88.4663 285.596M92.9379 285.596C90.9937 289.096 83.217 291.429 80.884 292.984C77.9678 294.928 67.4693 300.955 65.1363 303.677C62.8033 306.399 61.8312 309.121 59.3038 315.731C56.7763 322.341 55.0266 329.146 53.8601 332.451C52.6936 335.756 55.221 335.756 55.6098 336.922C56.8412 336.663 55.6098 335.834 55.6098 334.589C55.6098 333.034 59.1094 322.73 60.6647 319.036C61.8576 316.203 64.1642 308.149 67.8581 304.649C71.552 301.15 81.4673 295.511 83.4115 294.151C85.3556 292.79 91.1881 289.485 94.1044 287.346M95.2709 292.401C91.9658 295.317 86.1333 299.594 83.9947 300.566C81.8561 301.538 73.6906 305.621 70.1911 308.926C67.3915 311.57 62.7385 327.461 60.6647 334.589M95.0765 289.096C93.1971 291.04 87.3776 295.784 83.8003 297.65C79.3287 299.983 69.4134 305.816 67.8581 308.343C66.6138 310.365 60.211 326.424 57.1652 334.2M82.8282 306.982L98.576 326.035L99.5481 323.896L85.7445 305.816L87.883 304.455C92.2898 310.546 101.103 322.613 101.103 322.147V318.258L90.4105 302.705L92.3546 300.761L103.631 315.731M63.7754 333.034C65.9787 325.97 70.5411 311.687 71.1632 311.065C71.9409 310.287 75.0515 307.565 79.3287 305.621C83.6059 303.677 90.4753 299.141 94.6876 296.289" stroke="#0057C0" stroke-width="0.840259"/>
<path d="M52.4181 245.385C49.955 243.36 50.5253 238.089 51.1379 235.357L55.781 231.5C57.7801 233.621 63.8035 238.525 64.7321 238.988C65.8929 239.567 65.2158 241.625 64.7321 242.589C64.283 243.484 64.3664 243.508 63.4958 243.669L66.4603 247.569C66.4603 247.569 64.4319 248.974 61.3115 249.376C58.191 249.778 57.879 249.376 57.879 249.376V248.505L57.4805 246.69C57.4805 246.69 54.6915 247.254 52.4181 245.385Z" fill="#FFD3DD"/>
<path d="M54.7813 243.062C53.3815 243.062 52.8372 241.648 52.74 240.941L55.3528 240.73C55.367 240.687 55.3712 240.686 55.3645 240.729L55.3528 240.73C55.2975 240.899 55.0907 241.712 54.7813 243.062Z" fill="#F77A94"/>
<path d="M53.791 237.544L52.74 239.815L53.791 240.434" stroke="#AA6474" stroke-width="0.42013"/>
<path d="M51.7234 231.546C54.3847 229.478 55.9491 229.778 56.8978 230.707C58.6259 230.541 61.7521 229.793 65.0049 233.108C66.7083 236.251 68.5863 243.254 63.1258 243.809C62.8953 243.858 62.6531 243.872 62.404 243.844C62.6577 243.844 62.8982 243.832 63.1258 243.809C64.6461 243.485 65.6553 241.619 64.7421 239.908C63.8612 239.211 62.7686 237.907 61.7521 240.696C59.4721 239.733 55.0432 237.011 55.0432 234.022C53.6608 234.022 51.7357 234.37 50.6176 236.86C50.6176 236.86 49.0621 233.615 51.7234 231.546Z" fill="#00C5B9"/>
<path d="M60.6403 245.45C59.1967 246.402 58.0348 246.478 57.4107 246.634C57.5316 247.108 57.3797 246.62 57.5315 247.108C59.8742 246.732 61.483 245.359 61.9898 244.684C62.1415 244.543 62.084 244.497 60.6403 245.45Z" fill="#F1B9C6"/>
<ellipse cx="52.3058" cy="236.826" rx="0.565526" ry="0.193766" transform="rotate(12.3183 52.3058 236.826)" fill="#08305D"/>
<ellipse cx="56.0154" cy="237.333" rx="0.565526" ry="0.193766" transform="rotate(-0.474125 56.0154 237.333)" fill="#08305D"/>
<circle cx="52.1278" cy="238.378" r="0.387532" fill="#08305D"/>
<circle cx="55.4215" cy="238.767" r="0.387532" fill="#08305D"/>
<path d="M63.6565 240.995C63.1398 240.769 62.1839 240.704 62.4939 242.255" stroke="#AA6474" stroke-width="0.42013"/>
<path d="M57.7484 247.492C57.7484 248.425 56.8411 248.529 56.3875 248.464L54.0545 250.214L53.2768 266.156L57.7484 274.905L61.6367 273.544L68.0525 249.242L64.3586 244.576C62.9976 245.418 59.7703 247.181 57.7484 247.492Z" fill="#08305D"/>
<path d="M99.5478 253.713C111.991 256.173 103.512 285.314 104.991 285.986L92.3544 282.487L94.6874 266.739C94.6874 266.739 90.8367 265.573 84.1889 265.573C87.5862 269.783 92.3544 284.625 92.3544 284.625C92.3544 284.625 89.6513 284.431 81.2726 288.319C72.894 292.208 63.2205 298.299 63.2205 298.299C59.498 289.25 53.3991 275.594 51.5269 264.286C48.4329 261.192 33.9558 248.444 32.5516 246.292C31.1608 244.16 22.9296 231.407 21.0034 223.773L32.5516 217.746L42.0004 235.89C42.0004 235.89 51.2703 246.645 56.1929 248.464C56.1929 248.464 52.3045 261.879 58.3315 272.766C59.498 255.657 68.0525 249.242 68.0525 249.242C71.3576 249.242 94.6874 252.936 99.5478 253.713Z" fill="#08305D"/>
<path d="M63.5415 186.165C66.5162 187.402 67.2581 193.235 68.8707 193.561L78.2105 184.221C74.8284 182.56 74.731 173.416 66.3914 168.113C60.2636 163.527 58.6816 166.145 56.504 168.014C54.3264 169.883 54.9416 177.462 55.7506 180.659C56.5596 183.855 59.8231 184.618 63.5415 186.165Z" fill="#FFD3DD"/>
<path d="M67.9819 163.731C66.6633 165.196 66.7 167.521 66.8831 168.5L74.2084 179.481C75.3072 176.817 72.9265 173.437 72.0108 170.69C71.0951 167.943 72.9265 166.478 73.659 164.83C74.3915 163.182 72.1939 161.534 71.2783 161.9C70.3626 162.266 69.6301 161.9 67.9819 163.731Z" fill="#FFD3DD"/>
<path d="M58.0644 179.927L59.6309 179.017C60.5132 179.653 62.461 180.925 63.1935 180.925C64.1092 180.925 64.8417 180.166 64.8417 179.017M55.2974 177.868C56.0048 177.282 58.1815 175.814 59.6625 175.534C61.0226 176.695 63.9627 179.017 64.8417 179.017M55.1015 173.993C56.1992 172.993 58.7451 171.305 60.3686 172.102C61.7986 173.7 64.219 176.2 65.3911 176.346C65.5813 176.37 65.7654 176.367 65.9405 176.34M55.418 171.07C56.6455 169.9 59.9789 167.824 62.1466 169.337L65.9405 173.261C66.3442 173.586 66.9592 173.947 67.4056 173.892M66.8562 169.754C67.1614 169.948 67.8084 170.807 67.9549 172.684C68.0207 173.526 67.7691 173.848 67.4056 173.892M67.4056 173.892C67.8836 174.944 67.1137 176.162 65.9405 176.34M64.8417 179.017C65.9405 179.017 67.0393 177.799 65.9405 176.34" stroke="#AA6474" stroke-width="0.42013" stroke-linecap="round"/>
<path d="M214.88 363.758L145.041 281.516C145.041 281.516 162.344 270.045 163.588 267.712C171.322 278.246 215.067 335.482 217.947 338.575C220.827 341.669 218.08 355.98 214.88 363.758Z" fill="#DD9F00"/>
<path d="M142.618 256.838C128.528 264.527 113.39 282.176 110.057 285.376C107.591 287.743 90.0959 350.924 90.0959 350.924H116.613C116.613 350.924 129.478 295.331 131.19 293.762C132.902 292.193 145.847 281.807 152.781 277.368C159.715 272.929 167.327 268.686 167.594 259.352C167.86 250.018 156.097 249.482 142.618 256.838Z" fill="#FFB800"/>
<path d="M108.403 186.892C110.285 185.429 113.669 184.688 114.851 185.846C117.004 185.64 120.9 184.707 124.953 188.838C125.017 188.955 125.081 189.077 125.145 189.203C125.606 187.887 126.862 186.302 129.497 186.892C133.485 187.785 135.004 188.224 138.232 193.701C141.46 199.178 149.815 200.822 155.511 199.558C160.068 198.547 165.385 204.833 167.474 208.102C168.866 212.153 169.6 220.179 161.397 219.875C151.144 219.495 137.472 216.428 133.485 205.064C130.096 195.406 128.097 191.171 126.05 191.301C127.618 195.594 128.21 201.603 122.611 202.172C122.324 202.234 122.022 202.251 121.712 202.216C122.028 202.216 122.328 202.201 122.611 202.172C124.506 201.769 125.763 199.444 124.626 197.311C123.528 196.443 122.166 194.818 120.9 198.294C118.059 197.094 112.54 193.701 112.54 189.977C110.817 189.977 108.74 190.598 107.347 193.701C107.347 194.282 106.591 199.748 108.041 202.406C109.18 204.495 111.602 205.302 111.602 205.302C111.582 206.157 110.189 209.583 108.101 208.54C107.729 208.723 107.416 208.621 107.548 208.168C107.737 208.328 107.921 208.45 108.101 208.54C108.63 208.279 109.276 207.438 108.924 206.204C108.436 204.496 105.762 203.545 105.003 201.646C104.243 199.748 104.623 196.33 105.656 193.514C106.689 190.698 106.522 188.355 108.403 186.892Z" fill="#FF507E"/>
<path d="M116.268 209.193L115.49 209.971L111.99 212.692C112.185 217.553 112.574 227.429 112.574 228.051C112.574 228.673 118.277 236.476 121.128 240.3C124.498 236.8 131.277 229.762 131.432 229.607C131.588 229.451 130.201 215.544 129.488 208.61L126.572 206.86C125.988 207.184 124.317 207.987 122.295 208.61C120.273 209.232 117.434 209.258 116.268 209.193Z" fill="white"/>
<path d="M128.321 207.832C140.959 207.042 147.475 184.247 149.318 185.085L160.206 194.611L150.679 220.663C151.136 226.142 154.179 232.523 158.067 239.716C162.301 244.962 166.622 254.881 166.622 254.881C166.622 254.881 158.456 258.186 149.318 261.102C140.181 264.018 116.268 272.378 116.268 272.378C111.018 257.019 109.463 244.669 107.13 230.578C103.275 226.723 82.2447 219.11 80.4949 216.428C78.7618 213.772 67.5362 199.457 65.136 189.945L77.3842 181.585L88.6604 200.055C94.6873 203.689 110.134 207.12 116.268 209.387C116.268 209.387 117.434 214.831 119.184 219.886C120.934 224.94 123.461 229.995 123.461 229.995C125.6 219.302 127.895 207.405 128.321 207.832Z" fill="#0057C0"/>
<path d="M123.461 229.606L118.795 245.16C119.249 248.206 121.361 257.175 126.183 268.684" stroke="white" stroke-width="0.630194"/>
<path d="M136.098 214.442C137.459 217.164 142.281 222.257 150.679 220.858" stroke="#4192F3" stroke-width="0.630194"/>
<path d="M107.146 230.189C106.369 224.551 107.535 215.219 114.145 208.803" stroke="#4192F3" stroke-width="0.630194"/>
<path d="M116.341 209.388L112.396 214.174L116.341 218.034L113.253 224.209L121.922 235.245" stroke="white" stroke-width="0.630194"/>
<path d="M127.901 208.221L132.615 213.8L127.901 217.675L131.917 222.945L119.006 245.16" stroke="white" stroke-width="0.630194"/>
<circle cx="122.894" cy="249.437" r="1.1665" fill="white"/>
<circle cx="125.227" cy="257.214" r="1.1665" fill="white"/>
<circle cx="130.865" cy="246.909" r="1.36092" fill="white"/>
<circle cx="133.198" cy="254.687" r="1.36092" fill="white"/>
<path d="M109.269 204.136C106.199 201.613 106.91 195.045 107.673 191.641L113.459 186.834C115.95 189.478 123.456 195.588 124.613 196.165C126.059 196.886 125.216 199.451 124.613 200.652C124.053 201.768 124.157 201.797 123.072 201.998L126.766 206.858C126.766 206.858 124.239 208.608 120.35 209.109C116.462 209.61 116.073 209.109 116.073 209.109V208.025L115.577 205.763C115.577 205.763 112.101 206.465 109.269 204.136Z" fill="#FFD3DD"/>
<path d="M112.214 201.24C110.469 201.24 109.791 199.478 109.67 198.597L112.926 198.334C112.943 198.28 112.949 198.279 112.94 198.333L112.926 198.334C112.857 198.544 112.599 199.557 112.214 201.24Z" fill="#F77A94"/>
<path d="M110.98 194.366L109.67 197.196L110.98 197.967" stroke="#AA6474" stroke-width="0.42013"/>
<path d="M108.403 186.892C110.285 185.429 113.669 184.688 114.851 185.846C117.004 185.64 120.9 184.707 124.953 188.838C127.075 192.754 129.416 201.48 122.611 202.172C122.324 202.234 122.022 202.251 121.712 202.216C122.028 202.216 122.328 202.201 122.611 202.172C124.506 201.769 125.763 199.444 124.626 197.311C123.528 196.443 122.166 194.818 120.9 198.294C118.059 197.094 112.54 193.701 112.54 189.977C110.817 189.977 108.74 190.598 107.347 193.701C107.347 194.282 106.591 199.748 108.041 202.406C109.18 204.495 111.602 205.302 111.602 205.302C111.582 206.157 110.189 209.583 108.101 208.54C107.729 208.723 107.416 208.621 107.548 208.168C107.737 208.328 107.921 208.45 108.101 208.54C108.63 208.279 109.276 207.438 108.924 206.204C108.436 204.496 105.762 203.545 105.003 201.646C104.243 199.748 104.623 196.33 105.656 193.514C106.689 190.698 106.522 188.355 108.403 186.892Z" fill="#FF507E"/>
<path d="M119.514 204.215C117.715 205.402 116.267 205.496 115.49 205.691C115.64 206.282 115.451 205.673 115.64 206.282C118.559 205.813 120.564 204.102 121.196 203.261C121.385 203.085 121.313 203.028 119.514 204.215Z" fill="#F1B9C6"/>
<ellipse cx="109.128" cy="193.471" rx="0.704688" ry="0.241447" transform="rotate(12.3183 109.128 193.471)" fill="#08305D"/>
<ellipse cx="113.751" cy="194.104" rx="0.704688" ry="0.241447" transform="rotate(-0.474125 113.751 194.104)" fill="#08305D"/>
<circle cx="108.906" cy="195.407" r="0.482894" fill="#08305D"/>
<circle cx="113.011" cy="195.889" r="0.482894" fill="#08305D"/>
<path d="M123.272 198.666C122.629 198.384 121.437 198.304 121.824 200.235" stroke="#AA6474" stroke-width="0.42013"/>
<path d="M287.831 378.197L206.377 282.55C206.377 274.755 219.885 269.58 228.34 266.796C237.31 279.015 288.048 345.4 291.389 348.988C294.73 352.576 291.543 369.175 287.831 378.197Z" fill="#001630"/>
<path d="M201.705 254.937C185.362 263.856 175.186 275.009 171.319 278.721C168.459 281.466 148.167 354.747 148.167 354.747H178.924C178.924 354.747 193.845 290.267 195.831 288.447C197.816 286.627 205.449 283.898 213.492 278.749C221.535 273.601 230.364 268.68 230.673 257.853C230.982 247.027 217.339 246.405 201.705 254.937Z" fill="#08305D"/>
<path d="M124.046 145.312C127.686 146.826 128.594 153.964 130.567 154.362L141.996 142.933C137.857 140.9 137.738 129.711 127.533 123.222C120.034 117.61 118.099 120.814 115.434 123.101C112.769 125.388 113.522 134.663 114.512 138.574C115.502 142.485 119.495 143.419 124.046 145.312Z" fill="#FFD3DD"/>
<path d="M129.48 117.86C127.866 119.653 127.911 122.498 128.135 123.696L137.099 137.133C138.444 133.873 135.53 129.737 134.41 126.376C133.289 123.014 135.53 121.222 136.427 119.205C137.323 117.188 134.634 115.171 133.513 115.619C132.393 116.067 131.496 115.619 129.48 117.86Z" fill="#FFD3DD"/>
<path d="M117.344 137.678L119.26 136.565C120.34 137.343 122.724 138.9 123.62 138.9C124.74 138.9 125.637 137.971 125.637 136.565M113.957 135.159C114.823 134.442 117.487 132.646 119.299 132.303C120.963 133.724 124.561 136.565 125.637 136.565M113.718 130.417C115.061 129.194 118.176 127.128 120.163 128.104C121.913 130.059 124.875 133.118 126.309 133.297C126.542 133.326 126.767 133.322 126.981 133.29M114.105 126.84C115.607 125.409 119.686 122.869 122.339 124.72L126.981 129.521C127.475 129.919 128.228 130.361 128.774 130.294M128.102 125.23C128.475 125.468 129.267 126.518 129.447 128.815C129.527 129.846 129.219 130.239 128.774 130.294M128.774 130.294C129.359 131.581 128.417 133.072 126.981 133.29M125.637 136.565C126.981 136.565 128.326 135.075 126.981 133.29" stroke="#AA6474" stroke-width="0.42013" stroke-linecap="round"/>
<path d="M253.42 257.659C247.665 258.593 248.559 251.049 249.726 247.161L257.503 241.717L265.474 250.272C263.854 252.345 259.175 256.726 253.42 257.659Z" fill="#FFD3DD"/>
<path d="M193.151 191.453C210.842 195.834 243.31 206.139 245.449 207.111L258.475 242.494L248.559 248.521L230.867 224.803C229.836 223.823 225.513 224.361 220.563 223.247C223.038 228.444 230.944 240.769 233.006 249.688L203.26 259.129L196.08 250.909L188.901 263.686L178.764 266.797C164.766 236.468 165.738 211.582 165.738 211.582C161.266 207.111 138.511 186.167 136.964 181.836C135.727 178.372 127.654 158.562 124.87 147.529L140.464 139.648L153.684 167.255C158.509 172.699 169.705 181.346 176.819 183.975L175.392 189.825L177.69 194.155L188.873 187.863C190.214 188.585 192.656 190.958 193.151 191.453Z" fill="#00C5B9"/>
<path d="M196.65 195.833C194.9 199.527 192.451 208.315 196.65 213.914C200.849 219.513 214.212 222.339 220.369 223.052" stroke="#007D98" stroke-width="0.840259"/>
<path d="M230.284 224.608C232.552 224.219 237.361 222.858 238.45 220.525" stroke="#007D98" stroke-width="0.840259"/>
<path d="M166.127 204.972V211.776" stroke="#007D98" stroke-width="0.840259"/>
<path d="M165.738 192.335C167.293 190.909 171.415 188.33 175.459 189.418" stroke="#007D98" stroke-width="0.840259"/>
<path d="M188.873 187.862C190.214 188.584 192.656 190.957 193.151 191.452C183.235 203.999 184.791 235.883 200.538 255.908C199.761 256.686 188.096 263.685 188.096 263.685C188.096 263.685 177.403 234.717 174.486 227.912C168.848 210.22 173.515 192.917 173.515 192.917L175.392 189.824L177.69 194.154L188.873 187.862Z" fill="white"/>
<path d="M175.393 189.824L177.691 194.154L173.515 198.75L173.515 192.917L175.393 189.824Z" fill="white"/>
<path d="M177.691 194.154L188.874 187.862C190.214 188.584 192.656 190.957 193.151 191.452L181.486 201.86L177.459 194.463M177.691 194.154L175.393 189.824M177.691 194.154L173.515 198.75L173.515 192.917M175.393 189.824L173.515 192.917M175.393 189.824C175.131 190.805 173.515 192.917 173.515 192.917" stroke="#0057C0" stroke-width="0.840259"/>
<path d="M175.847 196.418C175.588 201.214 175.731 213.021 178.375 221.887C181.019 230.752 188.938 251.762 192.373 260.964" stroke="#0057C0" stroke-width="0.840259"/>
<path d="M170.62 182.942C166.975 179.946 167.709 172.145 168.616 168.102L175.487 162.395C178.445 165.534 186.566 173.838 187.94 174.523C189.658 175.379 189.448 177.377 188.733 178.804C188.068 180.129 187.301 180.849 186.013 181.087L188.096 187.936L177.792 193.696L175.487 189.224V187.936L175.062 185.113C175.028 185.309 173.812 185.566 170.62 182.942Z" fill="#FFD3DD"/>
<path d="M174.008 179.504C171.937 179.504 171.131 177.412 170.987 176.366L174.854 176.053C174.875 175.989 174.881 175.988 174.871 176.052L174.854 176.053C174.772 176.303 174.466 177.506 174.008 179.504Z" fill="#F77A94"/>
<path d="M172.543 171.337L170.987 174.698L172.543 175.615" stroke="#AA6474" stroke-width="0.42013"/>
<path d="M169.483 162.464C164.79 164.587 165.872 167.946 168.228 170.55C169.883 166.865 172.35 166.128 174.395 166.128C174.395 170.55 180.949 174.58 184.323 176.005C185.827 171.877 187.444 173.806 188.748 174.838C190.304 177.754 187.59 181.176 184.791 180.865L188.096 188.253L189.068 187.67L193.345 191.364C193.345 191.364 193.151 191.364 197.622 192.725L228.923 202.056C229.507 201.732 232.85 199.762 233.784 194.474C234.717 189.186 236.223 183.392 231.557 178.863C226.891 174.334 216.87 178.143 216.87 178.143C216.87 178.143 204.078 180.476 195.678 176.416C192.019 174.647 190.768 169.774 189.137 166.128C187.242 161.892 179.697 160.977 177.14 161.223C175.736 159.847 174.176 160.342 169.483 162.464Z" fill="#0057C0"/>
<path d="M180.849 184.213C178.178 185.614 175.672 185.47 174.898 185.291C174.801 185.291 175.043 185.56 175.188 186.503C179.252 186.395 182.3 184.258 183.317 183.135C183.607 182.911 183.52 182.812 180.849 184.213Z" fill="#F1B9C6"/>
<ellipse cx="170.344" cy="170.275" rx="0.836862" ry="0.286734" transform="rotate(12.3183 170.344 170.275)" fill="#08305D"/>
<ellipse cx="175.834" cy="171.025" rx="0.836862" ry="0.286734" transform="rotate(-0.474125 175.834 171.025)" fill="#08305D"/>
<circle cx="170.081" cy="172.574" r="0.573468" fill="#08305D"/>
<circle cx="174.955" cy="173.147" r="0.573468" fill="#08305D"/>
<path d="M187.141 176.445C186.377 176.11 184.962 176.015 185.421 178.308" stroke="#AA6474" stroke-width="0.42013"/>
<path d="M273.551 153.588C300.303 154.21 329.802 170.956 341.208 179.251L343.347 229.411L327.988 202.387C326.692 201.156 322.544 198.343 316.323 196.943C319.434 203.476 325.396 227.532 327.988 238.743L262.664 241.27L244.583 192.083C240.889 186.315 232.685 174.158 229.419 171.669C225.336 168.558 198.506 152.422 196.562 146.978C195.007 142.623 187.619 113.798 184.119 99.9293L205.311 93.9023L216.198 128.509C222.264 135.352 241.667 143.673 250.61 146.978V150.089L258.775 155.144L267.719 150.089C269.404 150.996 272.929 152.966 273.551 153.588Z" fill="white"/>
<path d="M273.551 153.588C300.303 154.21 329.802 170.956 341.208 179.251L343.347 229.411L327.988 202.387C326.692 201.156 322.544 198.343 316.323 196.943C319.434 203.476 325.396 227.532 327.988 238.743L262.664 241.27L244.583 192.083C240.889 186.315 232.685 174.158 229.419 171.669C225.336 168.558 198.506 152.422 196.562 146.978C195.007 142.623 187.619 113.798 184.119 99.9293L205.311 93.9023L216.198 128.509C222.264 135.352 241.667 143.673 250.61 146.978V150.089M273.551 153.588C272.929 152.966 269.404 150.996 267.719 150.089L258.775 155.144M273.551 153.588L264.608 163.115L258.484 155.532M258.775 155.144L250.61 150.089M258.775 155.144L253.526 162.143C251.102 160.616 249.716 153.977 249.716 153.977C249.716 153.977 250.281 151.322 250.61 150.089" stroke="#0057C0" stroke-width="0.840259"/>
<path d="M257.609 165.059C259.164 183.334 265.658 224.045 279.189 240.687" stroke="#0057C0" stroke-width="0.840259" stroke-linecap="round"/>
<path d="M270.052 195.582C269.741 194.493 267.589 184.76 266.552 180.029C268.691 180.029 282.106 181.973 283.272 183.139C284.827 187.961 285.864 195.388 286.188 198.498C285.281 198.628 282.456 198.809 278.412 198.498C273.357 198.11 270.441 196.943 270.052 195.582Z" stroke="#0057C0" stroke-width="0.840259"/>
<path d="M215.809 127.148L218.142 136.286" stroke="#0057C0" stroke-width="0.840259" stroke-linecap="round"/>
<path d="M285.994 161.17C284.05 169.854 287.938 189.321 319.045 197.72" stroke="#0057C0" stroke-width="0.840259" stroke-linecap="round"/>
<path d="M242.25 174.779C242.574 179.121 243.417 188.039 245.75 195.193" stroke="#0057C0" stroke-width="0.840259" stroke-linecap="round"/>
<path d="M258.97 164.282L254.887 160.783L258.386 155.728L263.052 160.783L261.497 164.282C262.016 165.319 264.219 167.237 268.885 166.615C274.717 165.838 277.828 150.867 284.049 138.814C289.027 129.171 306.602 125.982 314.767 125.593L327.988 136.675L312.629 141.924C308.87 141.6 299.758 141.963 293.382 146.007C285.41 151.062 280.939 168.559 270.829 172.059C262.741 174.859 259.553 168.041 258.97 164.282Z" fill="#FF507E"/>
<path d="M348.791 338.286L286.577 269.656C286.577 259.858 307.833 250.409 318.462 246.91C329.738 262.269 353.34 294.114 357.539 298.625C361.739 303.135 353.457 326.945 348.791 338.286Z" fill="#004292"/>
<path d="M230.585 262.851C226.697 266.584 220.54 279.83 217.948 285.987L190.729 338.868H234.279L261.886 278.988C267.071 277.303 281.056 272.611 295.52 267.323C313.601 260.712 327.988 252.936 328.377 239.326C328.765 225.717 306.213 221.829 285.605 230.578C264.997 239.326 235.445 258.185 230.585 262.851Z" fill="#0057C0"/>
<path d="M184.394 84.882C184.705 89.8591 186.193 96.2996 186.841 98.7622L204.533 93.7074C204.533 87.8749 211.418 81.9658 211.418 76.5222C214.723 70.6897 208.891 64.4682 204.808 62.7185C200.725 60.9687 190.616 66.9957 186.727 70.3007C182.839 73.6058 184.005 78.6607 184.394 84.882Z" fill="#FFD3DD"/>
<path d="M209.588 74.4604C209.199 72.9051 207.799 69.8333 205.311 69.9888C202.2 70.1832 193.646 72.5162 192.479 74.4604C191.313 76.4046 192.674 80.0985 196.173 79.3208C198.973 78.6987 201.358 77.8951 202.2 77.5711C200.645 78.284 197.573 80.6818 197.728 84.5701M190.341 72.5163L192.674 74.0716M191.313 67.267C192.609 67.8502 196.134 69.8722 197.534 71.7386M196.562 64.3507C198.701 65.1932 202.783 67.5781 202.783 70.3777M200.839 62.7954C203.302 63.7027 208.46 66.917 207.838 70.9609" stroke="#AA6474" stroke-width="0.42013" stroke-linecap="round"/>
<path d="M244.09 140.37C239.139 136.287 240.137 125.659 241.368 120.15L250.7 112.374C254.718 116.651 265.748 127.966 267.614 128.899C269.947 130.065 269.663 132.787 268.691 134.731C267.788 136.537 266.746 137.518 264.997 137.842L267.614 149.702L258.671 154.756L250.7 149.702V147.174L250.123 143.328C250.076 143.594 248.425 143.945 244.09 140.37Z" fill="#FFD3DD"/>
<path d="M248.86 135.373C246.06 135.373 244.972 132.781 244.777 131.485L250.003 131.098C250.031 131.018 250.04 131.016 250.027 131.096L250.003 131.098C249.893 131.407 249.479 132.898 248.86 135.373Z" fill="#F77A94"/>
<path d="M246.916 124.622L244.583 128.899L246.916 130.066" stroke="#AA6474" stroke-width="0.42013"/>
<path d="M241.084 110.235C235.018 113.034 238.038 120.021 241.083 123.455C243.222 118.595 246.411 117.623 249.055 117.623C249.055 123.455 257.525 128.769 261.886 130.649C263.83 125.205 267.589 129.288 269.274 130.649C270.246 128.445 271.374 122.755 268.108 117.623C264.841 112.49 257.415 111.855 254.11 112.179C252.295 110.364 247.149 107.435 241.084 110.235Z" fill="#08305D"/>
<path d="M257.998 141.925C254.42 143.947 251.064 143.74 250.027 143.481C249.897 143.481 250.221 143.87 250.415 145.231C255.859 145.075 259.942 141.99 261.303 140.37C261.692 140.046 261.575 139.903 257.998 141.925Z" fill="#F1B9C6"/>
<ellipse cx="243.775" cy="123.06" rx="1.13485" ry="0.388834" transform="rotate(12.3183 243.775 123.06)" fill="#08305D"/>
<ellipse cx="251.219" cy="124.078" rx="1.13485" ry="0.388834" transform="rotate(-0.474125 251.219 124.078)" fill="#08305D"/>
<circle cx="243.417" cy="126.178" r="0.777667" fill="#08305D"/>
<circle cx="250.027" cy="126.954" r="0.777667" fill="#08305D"/>
<path d="M266.552 131.427C265.515 130.973 263.597 130.843 264.219 133.954" stroke="#AA6474" stroke-width="0.42013"/>
<path d="M103.403 114.652C106.161 114.795 108.218 115.352 108.218 116.018C108.218 116.686 106.148 117.245 103.378 117.385C103.234 120.845 102.677 123.424 102.013 123.424C101.348 123.424 100.791 120.845 100.647 117.385C97.8771 117.245 95.8074 116.686 95.8074 116.018C95.8074 115.352 97.8645 114.795 100.622 114.652C100.707 110.796 101.297 107.811 102.013 107.811C102.728 107.811 103.318 110.796 103.403 114.652Z" fill="#0057C0"/>
<path d="M99.7277 144.548C101.151 144.621 102.213 144.907 102.213 145.249C102.213 145.591 101.144 145.878 99.7146 145.95C99.6404 147.724 99.3531 149.047 99.01 149.047C98.6669 149.047 98.3797 147.724 98.3055 145.95C96.8756 145.878 95.8074 145.591 95.8074 145.249C95.8074 144.907 96.8691 144.621 98.2923 144.548C98.3364 142.571 98.6409 141.04 99.01 141.04C99.3791 141.04 99.6837 142.571 99.7277 144.548Z" fill="#0057C0"/>
<path d="M150.953 132.942C153.532 133.074 155.457 133.588 155.457 134.203C155.457 134.82 153.521 135.335 150.929 135.465C150.795 138.659 150.274 141.039 149.652 141.039C149.03 141.039 148.509 138.659 148.375 135.465C145.783 135.335 143.847 134.82 143.847 134.203C143.847 133.588 145.772 133.074 148.351 132.942C148.431 129.383 148.983 126.627 149.652 126.627C150.321 126.627 150.873 129.383 150.953 132.942Z" fill="#0057C0"/>
<path d="M89.4502 107.115C90.3397 107.159 91.0033 107.33 91.0033 107.535C91.0033 107.74 90.3357 107.912 89.442 107.956C89.3956 109.02 89.2161 109.814 89.0017 109.814C88.7872 109.814 88.6077 109.02 88.5613 107.956C87.6677 107.912 87 107.74 87 107.535C87 107.33 87.6636 107.159 88.5531 107.115C88.5806 105.928 88.771 105.01 89.0017 105.01C89.2324 105.01 89.4227 105.928 89.4502 107.115Z" fill="#0057C0"/>
<path d="M106.085 152.852C106.619 152.881 107.017 152.995 107.017 153.132C107.017 153.269 106.616 153.383 106.08 153.412C106.052 154.122 105.944 154.651 105.816 154.651C105.687 154.651 105.579 154.122 105.552 153.412C105.015 153.383 104.615 153.269 104.615 153.132C104.615 152.995 105.013 152.881 105.547 152.852C105.563 152.061 105.677 151.448 105.816 151.448C105.954 151.448 106.068 152.061 106.085 152.852Z" fill="#0057C0"/>
<ellipse cx="131.837" cy="97.0033" rx="0.800663" ry="4.00332" fill="#0057C0"/>
<ellipse cx="140.622" cy="97.8824" rx="0.800663" ry="4.00332" transform="rotate(11.4422 140.622 97.8824)" fill="#0057C0"/>
<ellipse cx="149.325" cy="101.918" rx="0.800663" ry="4.00332" transform="rotate(47.0551 149.325 101.918)" fill="#0057C0"/>
<ellipse cx="153.912" cy="110.173" rx="0.800663" ry="4.00332" transform="rotate(72.6021 153.912 110.173)" fill="#0057C0"/>
<path d="M20.5799 190.273C21.5834 190.325 22.332 190.527 22.332 190.767C22.332 191.009 21.5788 191.211 20.5706 191.262C20.5183 192.513 20.3158 193.445 20.0739 193.445C19.8319 193.445 19.6294 192.513 19.5771 191.262C18.5689 191.211 17.8157 191.009 17.8157 190.767C17.8157 190.527 18.5643 190.325 19.5678 190.273C19.5989 188.879 19.8136 187.8 20.0739 187.8C20.3341 187.8 20.5488 188.879 20.5799 190.273Z" fill="#0057C0"/>
<path d="M45.0927 215.162C46.9115 215.255 48.2684 215.618 48.2684 216.051C48.2684 216.486 46.9032 216.85 45.0759 216.941C44.9811 219.193 44.6139 220.872 44.1755 220.872C43.737 220.872 43.3699 219.193 43.275 216.941C41.4477 216.85 40.0825 216.486 40.0825 216.051C40.0825 215.618 41.4394 215.255 43.2583 215.162C43.3146 212.653 43.7037 210.71 44.1755 210.71C44.6472 210.71 45.0364 212.653 45.0927 215.162Z" fill="#0057C0"/>
<path d="M6.72764 196.953C7.35483 196.984 7.82272 197.105 7.82272 197.249C7.82272 197.394 7.35195 197.515 6.72185 197.546C6.68916 198.297 6.56255 198.856 6.41136 198.856C6.26017 198.856 6.13356 198.297 6.10087 197.546C5.47077 197.515 5 197.394 5 197.249C5 197.105 5.46789 196.984 6.09508 196.953C6.1145 196.116 6.2487 195.469 6.41136 195.469C6.57402 195.469 6.70822 196.116 6.72764 196.953Z" fill="#0057C0"/>
<path d="M8.04318 218.814C8.41949 218.835 8.70022 218.915 8.70022 219.012C8.70022 219.108 8.41776 219.189 8.0397 219.209C8.02009 219.71 7.94412 220.083 7.85341 220.083C7.76269 220.083 7.68673 219.71 7.66711 219.209C7.28905 219.189 7.00659 219.108 7.00659 219.012C7.00659 218.915 7.28732 218.835 7.66364 218.814C7.67529 218.256 7.75581 217.825 7.85341 217.825C7.95101 217.825 8.03152 218.256 8.04318 218.814Z" fill="#0057C0"/>
<ellipse cx="30.6146" cy="189.823" rx="0.564544" ry="2.82272" fill="#0057C0"/>
<ellipse cx="36.8088" cy="190.444" rx="0.564544" ry="2.82272" transform="rotate(11.4422 36.8088 190.444)" fill="#0057C0"/>
<ellipse cx="42.9448" cy="193.288" rx="0.564544" ry="2.82272" transform="rotate(47.0551 42.9448 193.288)" fill="#0057C0"/>
<ellipse cx="46.1791" cy="199.108" rx="0.564544" ry="2.82272" transform="rotate(72.6021 46.1791 199.108)" fill="#0057C0"/>
</g>
<defs>
<clipPath id="clip0_91_5338">
<rect width="338" height="306" fill="white"/>
</clipPath>
</defs>
</svg>
