<svg width="20" height="20" viewBox="0 0 20 20" fill="none" xmlns="http://www.w3.org/2000/svg">
<path d="M15.25 7.16667C15.7141 7.16667 16.1592 7.33724 16.4874 7.64088C16.8156 7.94451 17 8.35632 17 8.78571V16.881C17 17.3104 16.8156 17.7222 16.4874 18.0258C16.1592 18.3294 15.7141 18.5 15.25 18.5H4.75C4.28587 18.5 3.84075 18.3294 3.51256 18.0258C3.18437 17.7222 3 17.3104 3 16.881V8.78571C3 8.35632 3.18437 7.94451 3.51256 7.64088C3.84075 7.33724 4.28587 7.16667 4.75 7.16667H12.625V5.54762C12.625 4.90352 12.3484 4.28581 11.8562 3.83036C11.3639 3.37491 10.6962 3.11905 10 3.11905C9.30381 3.11905 8.63613 3.37491 8.14384 3.83036C7.65156 4.28581 7.375 4.90352 7.375 5.54762H5.625C5.625 4.47412 6.08594 3.4446 6.90641 2.68552C7.72688 1.92644 8.83968 1.5 10 1.5C10.5745 1.5 11.1434 1.60469 11.6742 1.80811C12.205 2.01152 12.6873 2.30966 13.0936 2.68552C13.4998 3.06138 13.8221 3.50758 14.042 3.99866C14.2618 4.48974 14.375 5.01608 14.375 5.54762V7.16667H15.25ZM10 14.4524C10.4641 14.4524 10.9092 14.2818 11.2374 13.9782C11.5656 13.6745 11.75 13.2627 11.75 12.8333C11.75 12.4039 11.5656 11.9921 11.2374 11.6885C10.9092 11.3849 10.4641 11.2143 10 11.2143C9.53587 11.2143 9.09075 11.3849 8.76256 11.6885C8.43437 11.9921 8.25 12.4039 8.25 12.8333C8.25 13.2627 8.43437 13.6745 8.76256 13.9782C9.09075 14.2818 9.53587 14.4524 10 14.4524Z" fill="#616161"/>
</svg>
