<svg width="24" height="24" viewBox="0 0 24 24" fill="none" xmlns="http://www.w3.org/2000/svg">
<path d="M15.6995 13.3013C16.418 13.3013 17.0005 12.7188 17.0005 12.0003C17.0005 11.2817 16.418 10.6992 15.6995 10.6992C14.9809 10.6992 14.3984 11.2817 14.3984 12.0003C14.3984 12.7188 14.9809 13.3013 15.6995 13.3013Z" fill="#9E9E9E"/>
<path d="M15.6995 5.92873C16.418 5.92873 17.0005 5.34624 17.0005 4.6277C17.0005 3.90915 16.418 3.32666 15.6995 3.32666C14.9809 3.32666 14.3984 3.90915 14.3984 4.6277C14.3984 5.34624 14.9809 5.92873 15.6995 5.92873Z" fill="#9E9E9E"/>
<path d="M15.6995 20.6738C16.418 20.6738 17.0005 20.0914 17.0005 19.3728C17.0005 18.6543 16.418 18.0718 15.6995 18.0718C14.9809 18.0718 14.3984 18.6543 14.3984 19.3728C14.3984 20.0914 14.9809 20.6738 15.6995 20.6738Z" fill="#9E9E9E"/>
<path d="M8.32643 13.3013C9.04497 13.3013 9.62746 12.7188 9.62746 12.0003C9.62746 11.2817 9.04497 10.6992 8.32643 10.6992C7.60788 10.6992 7.02539 11.2817 7.02539 12.0003C7.02539 12.7188 7.60788 13.3013 8.32643 13.3013Z" fill="#9E9E9E"/>
<path d="M8.32643 5.92873C9.04497 5.92873 9.62746 5.34624 9.62746 4.6277C9.62746 3.90915 9.04497 3.32666 8.32643 3.32666C7.60788 3.32666 7.02539 3.90915 7.02539 4.6277C7.02539 5.34624 7.60788 5.92873 8.32643 5.92873Z" fill="#9E9E9E"/>
<path d="M8.32643 20.6738C9.04497 20.6738 9.62746 20.0914 9.62746 19.3728C9.62746 18.6543 9.04497 18.0718 8.32643 18.0718C7.60788 18.0718 7.02539 18.6543 7.02539 19.3728C7.02539 20.0914 7.60788 20.6738 8.32643 20.6738Z" fill="#9E9E9E"/>
</svg>
