<svg width="16" height="16" viewBox="0 0 16 16" fill="none" xmlns="http://www.w3.org/2000/svg">
<path d="M9.24067 6.45978C9.06224 6.64615 8.78463 6.69757 8.55129 6.58748C8.31794 6.47739 8.1811 6.23044 8.21146 5.97422C8.31914 5.06566 8.73095 4.29736 9.42762 3.69332C9.98225 3.21241 10.6302 2.92345 11.3542 2.81979V2.22998C11.3542 1.99435 11.4921 1.78054 11.7068 1.68337C11.9215 1.5862 12.1731 1.62368 12.3502 1.77917L14.4741 3.64457C14.6017 3.75665 14.6758 3.91757 14.6781 4.0874C14.6803 4.25723 14.6105 4.42006 14.4859 4.5355L12.362 6.50343C12.187 6.66554 11.9327 6.70863 11.7141 6.61317C11.4955 6.51771 11.3542 6.30184 11.3542 6.06331V5.41832C11.1236 5.42016 10.8831 5.44325 10.6322 5.4888C10.3234 5.54486 9.86129 5.81159 9.24067 6.45978Z" stroke="#616161" stroke-width="1.2" stroke-linejoin="round"/>
<path d="M7.61197 3.09009C6.88833 3.09009 6.17178 3.23262 5.50323 3.50954C4.83467 3.78647 4.22721 4.19236 3.71552 4.70405C3.20383 5.21574 2.79794 5.8232 2.52102 6.49175C2.24409 7.16031 2.10156 7.87686 2.10156 8.60049V13.6517C2.10156 13.7735 2.14994 13.8903 2.23606 13.9764C2.32218 14.0625 2.43898 14.1109 2.56076 14.1109H7.61199C9.07344 14.1109 10.475 13.5304 11.5084 12.497C12.5418 11.4636 13.1224 10.062 13.1224 8.6005" stroke="#616161" stroke-width="1.2" stroke-linecap="round" stroke-linejoin="round"/>
<path d="M4.73438 9.55908C5.13133 9.55908 5.45312 9.23729 5.45312 8.84033C5.45312 8.44338 5.13133 8.12158 4.73438 8.12158C4.33742 8.12158 4.01562 8.44338 4.01562 8.84033C4.01562 9.23729 4.33742 9.55908 4.73438 9.55908Z" fill="#616161"/>
<path d="M7.60938 9.55908C8.00633 9.55908 8.32812 9.23729 8.32812 8.84033C8.32812 8.44338 8.00633 8.12158 7.60938 8.12158C7.21242 8.12158 6.89062 8.44338 6.89062 8.84033C6.89062 9.23729 7.21242 9.55908 7.60938 9.55908Z" fill="#616161"/>
<path d="M10.4844 9.55908C10.8813 9.55908 11.2031 9.23729 11.2031 8.84033C11.2031 8.44338 10.8813 8.12158 10.4844 8.12158C10.0874 8.12158 9.76562 8.44338 9.76562 8.84033C9.76562 9.23729 10.0874 9.55908 10.4844 9.55908Z" fill="#616161"/>
</svg>
